<svg width="512" height="512" viewBox="0 0 512 512" fill="none" xmlns="http://www.w3.org/2000/svg">
<path d="M436.769 344.6C436.769 468.358 431.537 494.518 246.403 494.518C61.2693 494.518 55.6348 468.358 55.6348 344.6C55.6348 220.842 61.2692 197.499 246.403 197.499C431.537 197.499 436.769 220.842 436.769 344.6Z" fill="#29A9E2"/>
<mask id="mask0_5522_1170" style="mask-type:alpha" maskUnits="userSpaceOnUse" x="55" y="197" width="382" height="298">
<path d="M436.769 344.6C436.769 468.358 431.537 494.518 246.403 494.518C61.2693 494.518 55.6348 468.358 55.6348 344.6C55.6348 220.842 61.2692 197.499 246.403 197.499C431.537 197.499 436.769 220.842 436.769 344.6Z" fill="#29AAE3"/>
</mask>
<g mask="url(#mask0_5522_1170)">
<path d="M440.996 286.242L426.306 239.958L410.812 217.42L384.651 209.572C384.651 209.572 370.364 210.78 355.07 212.39C348.763 213.053 344.372 213.889 341.39 214.641C339.282 215.172 339.488 217.365 341.613 217.821C349.802 219.577 364.622 223.029 373.181 226.677C385.456 231.909 387.469 233.921 394.512 241.769C401.555 249.617 404.976 262.094 406.183 269.741C406.778 273.508 411.415 299.523 414.233 335.342C417.05 371.162 418.257 379.211 412.019 416.64C405.781 454.069 385.456 480.431 385.456 480.431L413.428 470.168L431.337 442.8L439.185 388.468L440.996 286.242Z" fill="#118BD4"/>
<path d="M68.5112 433.343C68.7124 440.386 70.5235 452.661 70.5235 452.661L50.8027 439.581L55.8335 317.031C55.8335 317.031 58.0471 350.234 64.2853 368.144C70.5235 386.053 95.4763 422.476 95.4763 422.476L85.2134 418.049C85.2134 418.049 77.9691 415.433 74.3469 418.049C70.7247 420.665 68.3099 426.3 68.5112 433.343Z" fill="#118BD4"/>
<path d="M167.721 214.604C174.012 215.862 174.095 214.766 176.144 214.326C176.475 214.255 176.696 214.615 176.5 214.89C175.341 216.526 172.284 220.614 169.733 222.049C166.513 223.861 161.08 225.269 155.647 223.056C150.214 220.842 139.146 210.831 131.7 208.969C124.255 207.108 108.76 208.969 108.76 208.969L145.786 200.316C149.073 203.335 160.678 213.195 167.721 214.604Z" fill="#118BD4"/>
</g>
<path d="M123.856 429.52C104.94 428.62 95.0793 422.477 91.4572 420.465C87.835 418.453 73.145 411.611 73.145 411.611L60.0649 390.683L58.4551 360.095L74.5537 389.274L96.0855 410.202L134.722 419.257L169.334 411.611L198.311 397.524C198.311 397.524 195.293 404.165 187.244 411.208C179.194 418.251 165.511 423.7 159.071 426.099C152.632 428.498 142.771 430.421 123.856 429.52Z" fill="#118BD4"/>
<path d="M292.893 403.964C289.069 396.921 286.855 385.853 286.855 385.853C296.85 391.286 321.266 406.62 325.291 407.586C329.316 408.552 349.908 412.282 359.702 414.026C372.648 410.672 398.821 403.964 399.948 403.964C401.075 403.964 417.858 379.548 426.108 367.34L424.901 400.342C424.901 400.342 419.065 411.208 414.839 414.629C410.613 418.05 396.326 426.1 385.862 428.313C375.398 430.527 369.763 431.332 358.293 431.13C346.823 430.929 341.792 430.124 330.925 427.911C320.059 425.697 310.802 420.063 307.582 418.453C304.363 416.843 296.716 411.007 292.893 403.964Z" fill="#118BD4"/>
<path fill-rule="evenodd" clip-rule="evenodd" d="M275.77 336.894C256.704 328.346 234.896 328.346 215.83 336.894L207.598 318.532C231.9 307.636 259.7 307.636 284.002 318.532L275.77 336.894Z" fill="#003F7D"/>
<path d="M430.023 334.142C419.325 392.099 396.307 410.203 356.313 410.203C307.761 408.557 282.25 385.633 279.076 337.786C279.076 297.792 300.237 267.603 361.838 270.542C401.787 272.448 436.554 298.757 430.023 334.142Z" fill="#FFFAE8"/>
<path fill-rule="evenodd" clip-rule="evenodd" d="M289.141 337.455C290.664 359.57 297.207 374.371 307.525 383.945C317.941 393.61 333.703 399.343 356.485 400.142C374.863 400.116 387.615 395.969 397.139 386.697C407.031 377.066 414.93 360.492 420.131 332.316C422.637 318.739 417.452 306.716 406.745 297.366C395.837 287.84 379.427 281.455 361.362 280.593C332.103 279.197 314.525 285.764 304.241 295.405C294.043 304.966 289.199 319.261 289.141 337.455ZM290.478 280.724C306.175 266.007 329.978 258.949 362.321 260.492C384.204 261.537 405.153 269.259 419.982 282.209C435.014 295.336 443.946 314.161 439.92 335.969C434.423 365.749 425.465 387.206 411.176 401.116C396.547 415.358 377.842 420.265 356.316 420.265H356.145L355.975 420.259C330.298 419.389 309.081 412.841 293.837 398.696C278.519 384.482 270.734 364 269.04 338.453L269.018 338.12V337.787C269.018 316.144 274.757 295.463 290.478 280.724Z" fill="#003F7D"/>
<path fill-rule="evenodd" clip-rule="evenodd" d="M330.013 342.513C330.014 342.513 330.015 342.512 328.328 338.375C326.641 334.239 326.642 334.238 326.643 334.238L326.651 334.235L326.665 334.229L326.706 334.213C326.74 334.199 326.785 334.181 326.841 334.159C326.953 334.116 327.111 334.055 327.31 333.981C327.708 333.832 328.275 333.629 328.982 333.395C330.394 332.927 332.385 332.329 334.737 331.799C339.361 330.756 345.747 329.885 351.956 331.045C358.198 332.211 363.802 335.4 367.689 338.101C369.668 339.476 371.284 340.782 372.413 341.751C372.978 342.236 373.425 342.64 373.737 342.93C373.894 343.074 374.016 343.191 374.104 343.275C374.148 343.317 374.183 343.351 374.209 343.376L374.241 343.407L374.252 343.418L374.258 343.424C374.259 343.425 374.26 343.426 371.121 346.605C367.983 349.784 367.983 349.784 367.984 349.785L367.979 349.781C367.97 349.771 367.951 349.753 367.924 349.728C367.871 349.676 367.784 349.594 367.665 349.484C367.428 349.264 367.065 348.936 366.593 348.531C365.646 347.717 364.271 346.606 362.591 345.439C359.16 343.055 354.771 340.66 350.315 339.828C345.827 338.989 340.809 339.588 336.703 340.514C334.691 340.968 332.986 341.48 331.793 341.876C331.198 342.073 330.734 342.24 330.429 342.354C330.276 342.411 330.163 342.454 330.093 342.481C330.057 342.495 330.033 342.505 330.02 342.51L330.01 342.514L330.013 342.513Z" fill="black"/>
<path d="M375.589 346.604C375.589 349.072 373.589 351.072 371.122 351.072C368.654 351.072 366.654 349.072 366.654 346.604C366.654 344.137 368.654 342.137 371.122 342.137C373.589 342.137 375.589 344.137 375.589 346.604Z" fill="black"/>
<path d="M332.563 338.61C332.563 341.077 330.446 342.96 327.979 342.96C325.511 342.96 323.629 341.077 323.629 338.61C323.629 336.143 325.511 334.025 327.979 334.025C330.446 334.025 332.563 336.143 332.563 338.61Z" fill="black"/>
<path d="M60.8621 334.143C71.56 392.099 94.5773 410.204 134.572 410.204C183.124 408.558 208.634 385.634 211.809 337.787C211.809 297.792 190.648 267.604 129.047 270.543C89.0974 272.449 54.3305 298.757 60.8621 334.143Z" fill="#FFFAE8"/>
<path fill-rule="evenodd" clip-rule="evenodd" d="M201.743 337.456C200.221 359.57 193.677 374.372 183.36 383.945C172.944 393.611 157.182 399.344 134.399 400.142C116.022 400.117 103.27 395.969 93.7462 386.698C83.8535 377.067 75.9544 360.493 70.7535 332.316C68.2473 318.739 73.433 306.717 84.1394 297.367C95.048 287.84 111.458 281.455 129.523 280.593C158.782 279.197 176.36 285.764 186.643 295.405C196.841 304.966 201.685 319.262 201.743 337.456ZM200.407 280.725C184.709 266.008 160.906 258.95 128.564 260.493C106.68 261.537 85.732 269.259 70.9027 282.21C55.8712 295.337 46.9392 314.161 50.9646 335.969C56.4616 365.75 65.4202 387.206 79.7092 401.117C94.3381 415.358 113.042 420.265 134.569 420.265H134.739L134.91 420.26C160.587 419.389 181.803 412.842 197.048 398.696C212.366 384.483 220.15 364 221.845 338.453L221.867 338.121V337.787C221.867 316.144 216.127 295.464 200.407 280.725Z" fill="#003F7D"/>
<path fill-rule="evenodd" clip-rule="evenodd" d="M160.866 342.512C160.865 342.512 160.864 342.511 162.551 338.374C164.237 334.238 164.236 334.237 164.235 334.237L164.228 334.234L164.214 334.228L164.173 334.212C164.139 334.198 164.094 334.18 164.038 334.158C163.925 334.115 163.768 334.054 163.569 333.98C163.171 333.831 162.604 333.628 161.897 333.394C160.485 332.926 158.494 332.328 156.142 331.798C151.518 330.755 145.132 329.884 138.923 331.044C132.681 332.21 127.077 335.399 123.19 338.1C121.211 339.475 119.595 340.781 118.466 341.75C117.901 342.235 117.454 342.639 117.142 342.929C116.985 343.073 116.862 343.19 116.775 343.274C116.731 343.316 116.696 343.35 116.67 343.375L116.638 343.407L116.627 343.417L116.621 343.423C116.62 343.424 116.619 343.425 119.758 346.604C122.896 349.783 122.896 349.783 122.895 349.784L122.9 349.78C122.909 349.77 122.928 349.752 122.955 349.727C123.008 349.675 123.095 349.593 123.214 349.483C123.451 349.263 123.814 348.935 124.286 348.53C125.233 347.716 126.607 346.605 128.288 345.438C131.719 343.054 136.108 340.659 140.564 339.827C145.052 338.988 150.07 339.587 154.176 340.513C156.188 340.967 157.893 341.479 159.086 341.875C159.681 342.072 160.145 342.239 160.45 342.353C160.603 342.41 160.716 342.453 160.786 342.481C160.821 342.494 160.846 342.504 160.859 342.509L160.869 342.513L160.866 342.512Z" fill="black"/>
<path d="M115.29 346.603C115.29 349.07 117.29 351.07 119.757 351.07C122.225 351.07 124.225 349.07 124.225 346.603C124.225 344.136 122.225 342.136 119.757 342.136C117.29 342.136 115.29 344.136 115.29 346.603Z" fill="black"/>
<path d="M158.317 338.61C158.317 341.077 160.435 342.959 162.902 342.959C165.369 342.959 167.252 341.077 167.252 338.61C167.252 336.143 165.369 334.025 162.902 334.025C160.435 334.025 158.317 336.143 158.317 338.61Z" fill="black"/>
<path fill-rule="evenodd" clip-rule="evenodd" d="M269.866 444.615C268.042 446.578 265.368 449.13 262.399 450.723C257.252 453.485 253.252 455.101 246.975 455.886C241.022 456.63 236.187 456.899 228.877 455.36C225.23 454.592 222.382 453.55 220.124 452.138C217.807 450.69 216.262 448.948 215.111 447.03L221.24 443.352C221.877 444.412 222.656 445.292 223.912 446.077C225.228 446.9 227.206 447.704 230.35 448.366C236.622 449.686 240.604 449.479 246.088 448.793C251.249 448.148 254.397 446.905 259.019 444.425C260.935 443.397 262.967 441.54 264.628 439.751C265.43 438.887 266.094 438.096 266.554 437.525C266.784 437.24 266.961 437.012 267.077 436.859C267.136 436.783 267.179 436.726 267.205 436.69C267.219 436.672 267.228 436.659 267.233 436.652L267.236 436.648C267.236 436.648 267.236 436.649 270.121 438.757C273.007 440.866 273.006 440.867 273.006 440.867L273.005 440.868L273.003 440.871L272.998 440.878L272.983 440.898C272.971 440.915 272.954 440.937 272.933 440.966C272.891 441.022 272.832 441.1 272.757 441.198C272.607 441.395 272.392 441.671 272.121 442.008C271.58 442.68 270.806 443.602 269.866 444.615Z" fill="black"/>
<path d="M221.754 445.191C221.754 447.165 220.154 448.765 218.18 448.765C216.206 448.765 214.605 447.165 214.605 445.191C214.605 443.217 216.206 441.617 218.18 441.617C220.154 441.617 221.754 443.217 221.754 445.191Z" fill="black"/>
<path d="M280.607 442.809C280.607 444.783 279.007 446.383 277.033 446.383C275.059 446.383 273.459 444.783 273.459 442.809C273.459 440.835 275.059 439.234 277.033 439.234C279.007 439.234 280.607 440.835 280.607 442.809Z" fill="black"/>
<path d="M272.268 428.869C272.268 430.843 270.667 432.443 268.693 432.443C266.719 432.443 265.119 430.604 265.119 428.63C265.119 426.656 266.719 425.294 268.693 425.294C270.667 425.294 272.268 426.895 272.268 428.869Z" fill="black"/>
<path fill-rule="evenodd" clip-rule="evenodd" d="M265.176 428.013C265.176 428.012 265.176 428.011 268.696 428.631C272.216 429.251 272.216 429.25 272.216 429.25L272.217 429.246L272.217 429.242C272.218 429.24 272.218 429.24 272.218 429.241L272.214 429.262C272.21 429.286 272.203 429.33 272.195 429.392C272.177 429.517 272.152 429.712 272.126 429.963C272.075 430.468 272.026 431.179 272.036 431.984C272.056 433.703 272.341 435.366 272.99 436.47C273.573 437.461 274.613 438.19 275.779 438.689C276.335 438.927 276.845 439.08 277.208 439.171C277.388 439.216 277.525 439.245 277.607 439.26C277.647 439.268 277.673 439.273 277.683 439.274C277.685 439.274 277.686 439.275 277.687 439.275C277.687 439.275 277.687 439.275 277.685 439.274L277.676 439.273L277.669 439.272L277.663 439.271C277.662 439.271 277.66 439.271 277.155 442.809C276.65 446.347 276.648 446.347 276.647 446.346L276.645 446.346L276.639 446.345L276.627 446.343L276.597 446.339C276.574 446.335 276.546 446.331 276.514 446.326C276.449 446.315 276.365 446.3 276.265 446.281C276.063 446.243 275.792 446.185 275.468 446.104C274.823 445.942 273.942 445.678 272.967 445.261C271.071 444.449 268.487 442.914 266.829 440.093C265.236 437.384 264.914 434.222 264.888 432.069C264.875 430.938 264.943 429.951 265.015 429.243C265.051 428.887 265.088 428.596 265.118 428.387C265.133 428.282 265.146 428.196 265.156 428.133C265.161 428.102 265.165 428.076 265.169 428.055L265.173 428.029L265.175 428.019L265.176 428.013Z" fill="black"/>
<path d="M366.149 211.381C359.307 210.375 343.812 204.539 344.215 201.319C344.617 198.1 356.289 158.054 360.112 148.194C363.935 138.334 375.406 110.564 379.632 102.112C383.857 93.6602 390.7 86.8183 391.504 84.4035C392.309 81.9887 388.888 77.5616 387.882 74.9456C386.876 72.3295 386.474 69.7135 386.272 65.6889C386.071 61.6642 386.071 58.2433 388.486 51.8039C390.901 45.3644 392.913 42.1447 395.328 38.925C397.743 35.7053 401.365 31.0769 406.999 27.0523C412.634 23.0277 416.256 20.8141 423.903 20.2104C431.55 19.6067 435.977 20.4116 441.41 22.2227C446.843 24.0338 450.408 27.0523 453.886 31.4794C457.365 35.9065 460.527 41.541 461.936 46.5718C463.344 51.6026 463.143 56.4322 462.539 62.0667C461.936 67.7012 459.32 72.9332 457.106 77.1591C454.893 81.385 452.277 84.8059 445.435 90.038C438.593 95.27 428.732 95.4712 426.519 97.0811C424.305 98.691 409.817 120.223 404.182 133.504C398.548 146.785 395.73 156.847 390.901 169.927C386.071 183.007 383.053 210.777 383.053 210.777C383.053 210.777 372.991 212.387 366.149 211.381Z" fill="#29A9E2"/>
<mask id="mask1_5522_1170" style="mask-type:alpha" maskUnits="userSpaceOnUse" x="344" y="20" width="119" height="192">
<path d="M366.149 211.381C359.307 210.375 343.812 204.539 344.215 201.319C344.617 198.1 356.289 158.054 360.112 148.194C363.935 138.334 375.406 110.564 379.632 102.112C383.857 93.6602 390.7 86.8183 391.504 84.4035C392.309 81.9887 388.888 77.5616 387.882 74.9456C386.876 72.3295 386.474 69.7135 386.272 65.6889C386.071 61.6642 386.071 58.2433 388.486 51.8039C390.901 45.3644 392.913 42.1447 395.328 38.925C397.743 35.7053 401.365 31.0769 406.999 27.0523C412.634 23.0277 416.256 20.8141 423.903 20.2104C431.55 19.6067 435.977 20.4116 441.41 22.2227C446.843 24.0338 450.408 27.0523 453.886 31.4794C457.365 35.9065 460.527 41.541 461.936 46.5718C463.344 51.6026 463.143 56.4322 462.539 62.0667C461.936 67.7012 459.32 72.9332 457.106 77.1591C454.893 81.385 452.277 84.8059 445.435 90.038C438.593 95.27 428.732 95.4712 426.519 97.0811C424.305 98.691 409.817 120.223 404.182 133.504C398.548 146.785 395.73 156.847 390.901 169.927C386.071 183.007 383.053 210.777 383.053 210.777C383.053 210.777 372.991 212.387 366.149 211.381Z" fill="#29AAE3"/>
</mask>
<g mask="url(#mask1_5522_1170)">
<path d="M410.42 58.8473C408.748 57.175 407.751 54.4413 407.296 52.9181C407.187 52.5529 407.622 52.2582 407.944 52.4615C409.599 53.5057 413.341 55.4263 418.47 55.4263C425.513 55.4263 426.519 52.8103 427.324 50.1943C427.945 48.1758 427.607 43.4016 427.421 41.3261C427.389 40.9651 427.804 40.7517 428.07 40.9982C429.207 42.0525 431.347 44.2117 432.355 46.3709C433.763 49.3894 432.958 55.8288 428.732 59.2497C424.507 62.6707 421.287 62.6707 418.47 62.4695C415.652 62.2682 412.835 61.2621 410.42 58.8473Z" fill="#118BD4"/>
<path d="M464.956 44.1574L453.284 30.4736C453.284 30.4736 454.894 41.9439 454.693 44.7611C454.492 47.5784 453.083 52.8104 451.876 56.6338C450.668 60.4572 447.449 68.3053 442.015 72.9336C436.582 77.562 430.948 81.1841 428.13 82.1903C425.313 83.1965 422.898 84.0014 415.654 84.0014C409.711 84.0014 400.517 82.1052 397.406 81.4241C397.039 81.3439 396.747 81.7802 396.947 82.0979C397.868 83.5601 399.661 86.7478 401.165 91.447C403.29 98.0877 388.689 137.328 388.689 137.328C388.689 137.328 369.974 184.617 367.962 197.295C365.95 209.973 366.352 210.778 366.352 210.778L364.742 215.607C370.377 215.741 381.807 215.929 382.451 215.607C383.095 215.285 386.341 212.253 387.884 210.778L389.293 198.1C391.909 186.965 397.221 164.615 397.543 164.293C397.865 163.971 405.995 144.572 410.019 134.913L428.935 102.112C432.088 101.24 438.755 99.4963 440.204 99.4963C442.015 99.4963 460.327 86.6174 461.535 86.0137C462.501 85.5308 466.499 71.5921 468.377 64.6831L464.956 44.1574Z" fill="#118BD4"/>
</g>
<path d="M161.948 212.189C153.497 214 136.593 209.171 136.593 209.171C136.593 209.171 135.184 182.608 130.556 159.064C126.388 137.86 114.059 102.458 111.649 95.628C111.405 94.9359 110.73 94.5123 109.997 94.5428C107.837 94.6327 103.266 94.6461 99.566 93.4621C94.535 91.8522 88.9007 87.2239 87.4921 86.0165C86.0834 84.8091 81.2541 79.9795 79.2418 68.308C77.2294 56.6366 80.2479 48.9898 82.2602 42.9528C84.2725 36.9158 89.1021 29.6715 97.3526 24.2382C105.603 18.8049 114.458 18 123.513 18C132.568 18 134.782 19.2074 139.813 22.6283C144.843 26.0493 149.069 29.4702 152.088 35.306C155.106 41.1417 156.515 45.9713 155.911 52.8132C155.307 59.6551 154.1 66.0945 150.277 71.3265C147.928 74.5409 145.655 76.3881 144.251 77.3348C143.501 77.8406 143.145 78.8336 143.526 79.6542C146.531 86.1249 158.477 112.371 163.558 131.294C169.394 153.027 178.047 199.914 178.047 199.914C178.047 199.914 170.4 210.378 161.948 212.189Z" fill="#29A9E2"/>
<mask id="mask2_5522_1170" style="mask-type:alpha" maskUnits="userSpaceOnUse" x="78" y="18" width="101" height="195">
<path d="M161.95 212.189C153.499 214 136.595 209.171 136.595 209.171C136.595 209.171 135.186 182.608 130.558 159.064C126.39 137.86 114.061 102.458 111.651 95.628C111.407 94.9359 110.732 94.5123 109.999 94.5428C107.839 94.6327 103.268 94.6461 99.5679 93.4621C94.5369 91.8522 88.9026 87.2239 87.494 86.0165C86.0854 84.8091 81.256 79.9795 79.2437 68.308C77.2314 56.6366 80.2498 48.9898 82.2622 42.9528C84.2745 36.9158 89.1041 29.6715 97.3546 24.2382C105.605 18.8049 114.459 18 123.515 18C132.57 18 134.784 19.2074 139.815 22.6283C144.845 26.0493 149.071 29.4702 152.09 35.306C155.108 41.1417 156.517 45.9713 155.913 52.8132C155.309 59.6551 154.102 66.0945 150.279 71.3265C147.93 74.5409 145.657 76.3881 144.253 77.3348C143.503 77.8406 143.147 78.8336 143.528 79.6542C146.532 86.1249 158.479 112.371 163.56 131.294C169.396 153.027 178.049 199.914 178.049 199.914C178.049 199.914 170.402 210.378 161.95 212.189Z" fill="#29AAE3"/>
</mask>
<g mask="url(#mask2_5522_1170)">
<path d="M107.82 45.3677C105.75 44.5713 103.301 41.5058 102.37 40.262C102.19 40.0215 101.81 40.0446 101.632 40.2869C100.543 41.7713 98.807 42.655 99.1676 46.9775C99.5704 51.8071 103.997 55.4293 107.82 56.4355C111.925 57.5158 116.675 56.8379 120.297 55.6305C123.919 54.4231 129.353 49.5936 130.359 45.7702C131.123 42.8663 130.842 39.382 130.663 37.874C130.625 37.5521 130.244 37.426 130.018 37.6582C128.169 39.5555 126.24 42.0036 124.322 43.1541C122.309 44.3615 118.687 45.7702 116.272 45.9714C113.858 46.1726 110.436 46.3739 107.82 45.3677Z" fill="#118BD4"/>
<path d="M82.8646 93.0601L78.4375 65.29C81.3889 69.7171 80.8523 73.3393 88.0966 78.9738C95.341 84.6083 105 82.9985 110.635 82.1935C113.332 81.8082 120.864 79.6841 126.934 76.1566C131.306 73.4775 135.282 70.5019 137.27 68.9608C137.606 68.7006 138.099 69.0755 137.935 69.4675C136.557 72.7682 133.368 80.8901 131.362 89.8404C128.746 101.512 139.21 124.654 145.448 150.411C151.686 176.169 153.9 193.676 156.918 200.719C159.937 207.762 163.156 215.007 163.156 215.007L135.99 213.598L132.368 205.75L106.61 115.598L82.8646 93.0601Z" fill="#118BD4"/>
</g>
<path d="M312.512 199.674C312.512 199.674 289.958 219.816 259.145 218.634C228.331 217.452 204.295 195.523 204.295 195.523C204.295 195.523 199.249 175.345 209.215 141.224C214.473 123.234 298.458 124.603 305.611 140.788C317.77 168.261 312.512 199.674 312.512 199.674Z" fill="#424242"/>
<path d="M204.691 196.017L212.232 202.019C212.232 202.019 211.768 190.695 214.991 180.27C216.199 176.374 220.95 174.905 224.644 177.263L253.27 195.425C254.84 196.42 256.63 196.99 258.443 197.072C260.255 197.155 262.019 196.747 263.536 195.894C276.644 188.511 310.834 169.188 312.383 167.983C312.383 167.983 312.292 165.435 311.517 162.162L202.944 158.132L204.691 196.017Z" fill="#212121"/>
<path d="M346.813 142.863L261.273 189.837C259.406 190.865 257.023 190.773 255.062 189.598L165.984 135.898C163.506 134.406 163.385 130.998 165.764 129.693L251.304 82.7194C253.172 81.6918 255.555 81.7836 257.515 82.9587L346.624 136.659C349.087 138.151 349.208 141.559 346.813 142.863Z" fill="#424242"/>
<path d="M258.057 186.006C258.042 186.005 258.012 186.019 257.996 186.018C257.75 186.009 257.502 185.94 257.282 185.799L164.214 131.562C164.214 131.562 163.797 132.361 164.295 133.846C164.809 135.331 165.533 135.833 165.925 136.07L255.037 189.577C256.01 190.162 257.096 190.485 258.172 190.526L258.234 190.529L258.073 186.007L258.057 186.006Z" fill="#9E9E9E"/>
<path d="M258.092 186.007C258.107 186.008 258.138 186.024 258.154 186.024C258.4 186.034 258.644 185.984 258.854 185.859L348.31 138.622C348.31 138.622 348.785 139.455 348.391 140.906C347.982 142.356 347.292 142.803 346.915 143.011L261.375 189.82C260.441 190.332 259.375 190.572 258.299 190.531L258.237 190.529L258.076 186.006L258.092 186.007Z" fill="#616161"/>
<path d="M221.007 168.613L221.499 163.43C221.499 163.43 259.205 138.843 262.928 136.261C266.651 133.678 270.558 130.801 272.297 128.495C275.373 124.437 273.158 121.892 273.158 121.892C273.158 121.892 270.727 126.614 264.928 125.784C261.605 125.304 257.282 122.076 256.559 120.564C255.836 119.051 213.992 157.27 213.992 157.27L213.699 163.412L221.007 168.613V168.613Z" fill="#424242"/>
<path d="M273.024 122.137C268.999 128.849 262.179 125.915 262.179 125.915C262.179 125.915 240.812 138.147 240.013 136.295C239.214 134.443 257.663 123.109 257.663 123.109C257.663 123.109 256.633 118.598 256.741 116.672C256.741 116.672 223.377 142.017 210.857 150.545C204.298 155.02 202.9 159.238 202.916 165.18C202.916 167.784 202.946 176.238 202.977 181.282C202.977 182.217 202.639 183.097 202.04 183.684C201.133 184.572 200.402 185.688 199.9 186.954C199.398 188.219 199.137 189.602 199.137 191.002C199.137 193.808 200.166 196.32 201.794 198.062C202.67 198.998 202.486 201.015 202.562 202.317C202.716 204.811 202.562 205.948 201.702 208.259C200.857 210.515 200.074 212.826 199.536 215.21C199.121 217.044 198.845 218.933 198.568 220.803C196.74 233.329 195.911 246.717 191.072 258.234C190.981 258.45 190.927 258.684 190.912 258.925C190.898 259.165 190.923 259.407 190.988 259.636C191.052 259.864 191.154 260.075 191.287 260.257C191.42 260.438 191.582 260.586 191.763 260.692C192.128 260.912 192.551 260.95 192.94 260.799C193.328 260.648 193.651 260.319 193.837 259.885C196.356 253.888 197.662 247.322 198.737 240.812C198.676 246.699 198.645 252.641 198.476 259.06C198.446 260.307 198.369 262.819 199.321 263.369C202.9 265.442 202.9 259.06 202.9 259.06C202.9 259.06 202.946 264.8 207.816 264.8C212.685 264.8 213.039 259.06 213.039 259.06C213.039 259.06 213.392 264.323 215.896 264.066C216.91 263.956 218.246 263.223 217.77 256.932C217.294 250.66 216.111 228.176 215.604 221.06C214.897 211.212 212.194 205.362 211.641 201.877C211.441 200.557 211.426 199.181 212.301 198.319C213.192 197.447 213.914 196.354 214.415 195.116C214.917 193.878 215.187 192.524 215.206 191.149C215.225 189.773 214.992 188.41 214.525 187.152C214.058 185.895 213.368 184.774 212.501 183.868C212.193 183.546 211.952 183.144 211.797 182.692C211.643 182.239 211.578 181.75 211.61 181.264C211.902 176.514 212.224 169.618 212.486 168.022C213.622 160.852 216.587 159.568 219.629 157.441C222.67 155.295 266.726 131.417 269.291 129.381C274.038 125.585 273.024 122.137 273.024 122.137V122.137Z" fill="#E2A610"/>
<path d="M273.025 122.136C269.217 128.533 261.309 125.674 261.309 125.674C261.309 125.674 241.098 136.323 242.439 134.399C243.765 132.474 257.609 123.108 257.609 123.108C257.609 123.108 256.576 118.599 256.684 116.674C256.684 116.674 222.614 140.081 209.402 151.335C205.995 154.249 201.771 159.015 205.208 163.762C206.796 165.943 209.864 166.402 211.822 164.679C213.009 163.652 213.934 162.149 214.982 160.958C216.277 159.455 217.85 158.502 219.392 157.42C222.444 155.276 266.658 131.411 269.233 129.377C274.043 125.582 273.025 122.136 273.025 122.136V122.136Z" fill="#FFCA28"/>
<path d="M206.129 208.052C204.075 208.052 202.69 207.857 201.429 207.521C201.204 207.462 201.005 207.314 200.868 207.103C200.731 206.892 200.665 206.632 200.682 206.371L201.087 199.61C201.134 198.92 201.709 198.442 202.301 198.637C203.702 199.097 206.503 199.557 211.079 198.46C211.639 198.318 212.199 198.76 212.261 199.415L212.884 206.14C212.931 206.689 212.619 207.202 212.152 207.326C209.771 207.946 208.044 208.052 206.129 208.052V208.052Z" fill="#9E740B"/>
<path d="M312.406 199.596C312.406 199.596 314.674 186.011 313.05 171.403C312.775 168.936 311.112 166.757 310.189 175.318C309.664 180.226 308.664 194.94 306.393 204.071C310.266 201.497 312.406 199.596 312.406 199.596V199.596Z" fill="#616161"/>
<path d="M267.348 107.452C268.463 107.874 269.485 108.902 269.775 110.278C270.157 112.113 269.195 113.948 268.157 115.379C266.127 118.186 263.334 120.645 260.236 120.517C259.213 120.48 258.114 120.076 257.488 119.104C257.046 118.425 256.893 117.544 256.847 116.682C256.572 110.388 262.495 105.617 267.348 107.452V107.452Z" fill="#616161"/>
</svg>
